# xmcd
#
# Track frame offsets:
#	150
#	22867
#	43351
#	73356
#	94749
#	106987
#	139555
#	169082
#	181662
#	210263
#	231971
#	267180
#
# Disc length: 3850 seconds
#
# Revision: 1
# Processed by: cddbd v1.5.2PL0 Copyright (c) Steve Scherf et al.
# Submitted via: audiograbber 1.83.01
#
DISCID=9f0f080c
DTITLE=Venom Blues - ReCoil
DYEAR=2007
DGENRE=Blues
TTITLE0=Sneak Attack
TTITLE1=Sweet Home Chicago
TTITLE2=Cold Women
TTITLE3=Playin' In The Dirt
TTITLE4=Shake Your Money Maker
TTITLE5=Down To The Still
TTITLE6=Blues Highway
TTITLE7=Rollin' And Tumblin'
TTITLE8=Further On Up The Road
TTITLE9=Dust My Broom
TTITLE10=Love Affair With The Blues
TTITLE11=The Blues Is Strugllin'
EXTD=
EXTT0=
EXTT1=
EXTT2=
EXTT3=
EXTT4=
EXTT5=
EXTT6=
EXTT7=
EXTT8=
EXTT9=
EXTT10=
EXTT11=
PLAYORDER=
